<mxfile host="app.diagrams.net" modified="2024-07-14T15:09:01.165Z" agent="Mozilla/5.0 (Macintosh; Intel Mac OS X 10_15_7) AppleWebKit/605.1.15 (KHTML, like Gecko) Version/17.4.1 Safari/605.1.15" version="24.6.5" etag="5pZ6kv4XW2F8mmZtGVXQ" type="github">
  <diagram name="StrÃ¡nka-1" id="-vi36c5Pf2gtTmX64O35">
    <mxGraphModel>
      <root>
        <mxCell id="0" />
        <mxCell id="1" parent="0" />
      </root>
    </mxGraphModel>
  </diagram>
</mxfile>
